<svg width="46" height="46" viewBox="0 0 46 46" fill="none" xmlns="http://www.w3.org/2000/svg">
<rect width="46" height="46" rx="2" fill="white"/>
<path fill-rule="evenodd" clip-rule="evenodd" d="M11.1118 14.5186C11.1118 14.0668 11.2913 13.6335 11.6108 13.3139C11.9303 12.9944 12.3636 12.8149 12.8155 12.8149H33.2599C33.7118 12.8149 34.1451 12.9944 34.4646 13.3139C34.7841 13.6335 34.9636 14.0668 34.9636 14.5186C34.9636 14.9705 34.7841 15.4038 34.4646 15.7233C34.1451 16.0429 33.7118 16.2223 33.2599 16.2223H12.8155C12.3636 16.2223 11.9303 16.0429 11.6108 15.7233C11.2913 15.4038 11.1118 14.9705 11.1118 14.5186ZM11.1118 23.0372C11.1118 22.5853 11.2913 22.152 11.6108 21.8325C11.9303 21.513 12.3636 21.3335 12.8155 21.3335H33.2599C33.7118 21.3335 34.1451 21.513 34.4646 21.8325C34.7841 22.152 34.9636 22.5853 34.9636 23.0372C34.9636 23.489 34.7841 23.9224 34.4646 24.2419C34.1451 24.5614 33.7118 24.7409 33.2599 24.7409H12.8155C12.3636 24.7409 11.9303 24.5614 11.6108 24.2419C11.2913 23.9224 11.1118 23.489 11.1118 23.0372ZM11.1118 31.5557C11.1118 31.1038 11.2913 30.6705 11.6108 30.351C11.9303 30.0315 12.3636 29.852 12.8155 29.852H33.2599C33.7118 29.852 34.1451 30.0315 34.4646 30.351C34.7841 30.6705 34.9636 31.1038 34.9636 31.5557C34.9636 32.0075 34.7841 32.4409 34.4646 32.7604C34.1451 33.0799 33.7118 33.2594 33.2599 33.2594H12.8155C12.3636 33.2594 11.9303 33.0799 11.6108 32.7604C11.2913 32.4409 11.1118 32.0075 11.1118 31.5557Z" fill="#FF2625"/>
</svg>
